<svg width="141" height="36" viewBox="0 0 141 36" fill="none" xmlns="http://www.w3.org/2000/svg">
<path d="M16.1364 27H10.2216V9.54545H16.2557C17.9886 9.54545 19.4773 9.89489 20.7216 10.5938C21.9716 11.2869 22.9318 12.2841 23.6023 13.5852C24.2727 14.8864 24.608 16.4432 24.608 18.2557C24.608 20.0739 24.2699 21.6364 23.5938 22.9432C22.9233 24.25 21.9545 25.2528 20.6875 25.9517C19.4261 26.6506 17.9091 27 16.1364 27ZM13.3835 24.2642H15.983C17.1989 24.2642 18.2131 24.0426 19.0256 23.5994C19.8381 23.1506 20.4489 22.483 20.858 21.5966C21.267 20.7045 21.4716 19.5909 21.4716 18.2557C21.4716 16.9205 21.267 15.8125 20.858 14.9318C20.4489 14.0455 19.8438 13.3835 19.0426 12.946C18.2472 12.5028 17.2585 12.2812 16.0767 12.2812H13.3835V24.2642ZM32.5513 27.2557C31.2388 27.2557 30.1053 26.983 29.1507 26.4375C28.2019 25.8864 27.4718 25.108 26.9604 24.1023C26.449 23.0909 26.1934 21.9006 26.1934 20.5312C26.1934 19.1847 26.449 18.0028 26.9604 16.9858C27.4774 15.9631 28.199 15.1676 29.1252 14.5994C30.0513 14.0256 31.1394 13.7386 32.3894 13.7386C33.1962 13.7386 33.9576 13.8693 34.6735 14.1307C35.3951 14.3864 36.0314 14.7841 36.5826 15.3239C37.1394 15.8636 37.5769 16.5511 37.8951 17.3864C38.2132 18.2159 38.3723 19.2045 38.3723 20.3523V21.2983H27.6422V19.2188H35.4149C35.4093 18.6278 35.2814 18.1023 35.0314 17.642C34.7814 17.1761 34.432 16.8097 33.9831 16.5426C33.5399 16.2756 33.0229 16.142 32.432 16.142C31.8013 16.142 31.2473 16.2955 30.7701 16.6023C30.2928 16.9034 29.9206 17.3011 29.6536 17.7955C29.3922 18.2841 29.2587 18.821 29.253 19.4062V21.2216C29.253 21.983 29.3922 22.6364 29.6706 23.1818C29.949 23.7216 30.3382 24.1364 30.8382 24.4261C31.3382 24.7102 31.9235 24.8523 32.5939 24.8523C33.0428 24.8523 33.449 24.7898 33.8127 24.6648C34.1763 24.5341 34.4916 24.3438 34.7587 24.0938C35.0257 23.8438 35.2274 23.5341 35.3638 23.1648L38.2445 23.4886C38.0627 24.25 37.7161 24.9148 37.2047 25.483C36.699 26.0455 36.0513 26.483 35.2615 26.7955C34.4718 27.1023 33.5684 27.2557 32.5513 27.2557ZM50.609 17.3693L47.7965 17.6761C47.717 17.392 47.5778 17.125 47.3789 16.875C47.1857 16.625 46.9243 16.4233 46.5948 16.2699C46.2653 16.1165 45.8618 16.0398 45.3846 16.0398C44.7425 16.0398 44.2028 16.179 43.7653 16.4574C43.3334 16.7358 43.1204 17.0966 43.1261 17.5398C43.1204 17.9205 43.2596 18.2301 43.5437 18.4688C43.8334 18.7074 44.3107 18.9034 44.9755 19.0568L47.2084 19.5341C48.4471 19.8011 49.3675 20.2244 49.9698 20.804C50.5778 21.3835 50.8846 22.142 50.8903 23.0795C50.8846 23.9034 50.6431 24.6307 50.1658 25.2614C49.6942 25.8864 49.038 26.375 48.1971 26.7273C47.3562 27.0795 46.3903 27.2557 45.2993 27.2557C43.6971 27.2557 42.4073 26.9205 41.43 26.25C40.4528 25.5739 39.8704 24.6335 39.6829 23.429L42.6914 23.1392C42.8278 23.7301 43.1175 24.1761 43.5607 24.4773C44.0039 24.7784 44.5806 24.929 45.2908 24.929C46.0238 24.929 46.6118 24.7784 47.055 24.4773C47.5039 24.1761 47.7283 23.804 47.7283 23.3608C47.7283 22.9858 47.5834 22.6761 47.2937 22.4318C47.0096 22.1875 46.5664 22 45.9641 21.8693L43.7312 21.4006C42.4755 21.1392 41.5465 20.6989 40.9442 20.0795C40.342 19.4545 40.0437 18.6648 40.0493 17.7102C40.0437 16.9034 40.2624 16.2045 40.7056 15.6136C41.1545 15.017 41.7766 14.5568 42.5721 14.233C43.3732 13.9034 44.2965 13.7386 45.342 13.7386C46.8761 13.7386 48.0834 14.0653 48.9641 14.7188C49.8505 15.3722 50.3988 16.2557 50.609 17.3693ZM52.7143 27V13.9091H55.7995V27H52.7143ZM54.2654 12.0511C53.7768 12.0511 53.3563 11.8892 53.0041 11.5653C52.6518 11.2358 52.4757 10.8409 52.4757 10.3807C52.4757 9.91477 52.6518 9.51989 53.0041 9.19602C53.3563 8.86648 53.7768 8.7017 54.2654 8.7017C54.7597 8.7017 55.1802 8.86648 55.5268 9.19602C55.8791 9.51989 56.0552 9.91477 56.0552 10.3807C56.0552 10.8409 55.8791 11.2358 55.5268 11.5653C55.1802 11.8892 54.7597 12.0511 54.2654 12.0511ZM63.9453 32.1818C62.8373 32.1818 61.8856 32.0313 61.0902 31.7301C60.2947 31.4347 59.6555 31.0369 59.1726 30.5369C58.6896 30.0369 58.3544 29.483 58.1669 28.875L60.9453 28.2017C61.0703 28.4574 61.2521 28.7102 61.4907 28.9602C61.7294 29.2159 62.0504 29.4261 62.4538 29.5909C62.8629 29.7614 63.3771 29.8466 63.9964 29.8466C64.8714 29.8466 65.5959 29.6335 66.1697 29.2074C66.7436 28.7869 67.0305 28.0938 67.0305 27.1278V24.6477H66.8771C66.718 24.9659 66.4851 25.2926 66.1782 25.6278C65.8771 25.9631 65.4765 26.2443 64.9765 26.4716C64.4822 26.6989 63.8601 26.8125 63.1101 26.8125C62.1044 26.8125 61.1924 26.5767 60.3743 26.1051C59.5618 25.6278 58.914 24.9176 58.4311 23.9744C57.9538 23.0256 57.7152 21.8381 57.7152 20.4119C57.7152 18.9744 57.9538 17.7614 58.4311 16.7727C58.914 15.7784 59.5646 15.0256 60.3828 14.5142C61.201 13.9972 62.1129 13.7386 63.1186 13.7386C63.8856 13.7386 64.5163 13.8693 65.0106 14.1307C65.5106 14.3864 65.9084 14.696 66.2038 15.0597C66.4993 15.4176 66.7237 15.7557 66.8771 16.0739H67.0476V13.9091H70.0902V27.2131C70.0902 28.3324 69.8231 29.2585 69.289 29.9915C68.7549 30.7244 68.0248 31.2727 67.0987 31.6364C66.1726 32 65.1214 32.1818 63.9453 32.1818ZM63.9709 24.392C64.6243 24.392 65.1811 24.233 65.6413 23.9148C66.1015 23.5966 66.451 23.1392 66.6896 22.5426C66.9282 21.946 67.0476 21.2301 67.0476 20.3949C67.0476 19.571 66.9282 18.8494 66.6896 18.2301C66.4566 17.6108 66.1101 17.1307 65.6498 16.7898C65.1953 16.4432 64.6356 16.2699 63.9709 16.2699C63.2834 16.2699 62.7095 16.4489 62.2493 16.8068C61.789 17.1648 61.4424 17.6562 61.2095 18.2812C60.9765 18.9006 60.8601 19.6051 60.8601 20.3949C60.8601 21.196 60.9765 21.8977 61.2095 22.5C61.4481 23.0966 61.7976 23.5625 62.2578 23.8977C62.7237 24.2273 63.2947 24.392 63.9709 24.392ZM75.6173 19.3295V27H72.5321V13.9091H75.481V16.1335H75.6344C75.9355 15.4006 76.4156 14.8182 77.0747 14.3864C77.7395 13.9545 78.5605 13.7386 79.5378 13.7386C80.4412 13.7386 81.2281 13.9318 81.8986 14.3182C82.5747 14.7045 83.0974 15.2642 83.4668 15.9972C83.8418 16.7301 84.0264 17.6193 84.0207 18.6648V27H80.9355V19.142C80.9355 18.267 80.7082 17.5824 80.2537 17.0881C79.8048 16.5937 79.1827 16.3466 78.3872 16.3466C77.8474 16.3466 77.3673 16.4659 76.9469 16.7045C76.5321 16.9375 76.2054 17.2756 75.9668 17.7188C75.7338 18.1619 75.6173 18.6989 75.6173 19.3295ZM89.5223 9.54545V27H86.4371V9.54545H89.5223ZM100.319 21.4943V13.9091H103.404V27H100.412V24.6733H100.276C99.9806 25.4062 99.4948 26.0057 98.8187 26.4716C98.1482 26.9375 97.3215 27.1705 96.3386 27.1705C95.4806 27.1705 94.7221 26.9801 94.063 26.5994C93.4096 26.2131 92.8982 25.6534 92.5289 24.9205C92.1596 24.1818 91.9749 23.2898 91.9749 22.2443V13.9091H95.0601V21.767C95.0601 22.5966 95.2874 23.2557 95.742 23.7443C96.1965 24.233 96.7931 24.4773 97.5317 24.4773C97.9863 24.4773 98.4266 24.3665 98.8528 24.1449C99.2789 23.9233 99.6283 23.5938 99.9011 23.1562C100.179 22.7131 100.319 22.1591 100.319 21.4943ZM111.567 27.2557C110.26 27.2557 109.138 26.9688 108.2 26.3949C107.268 25.821 106.55 25.0284 106.044 24.017C105.544 23 105.294 21.8295 105.294 20.5057C105.294 19.1761 105.55 18.0028 106.061 16.9858C106.572 15.9631 107.294 15.1676 108.226 14.5994C109.163 14.0256 110.271 13.7386 111.55 13.7386C112.612 13.7386 113.552 13.9347 114.371 14.3267C115.195 14.7131 115.851 15.2614 116.339 15.9716C116.828 16.6761 117.106 17.5 117.175 18.4432H114.226C114.106 17.8125 113.822 17.2869 113.374 16.8665C112.93 16.4403 112.337 16.2273 111.592 16.2273C110.962 16.2273 110.408 16.3977 109.93 16.7386C109.453 17.0739 109.081 17.5568 108.814 18.1875C108.552 18.8182 108.422 19.5739 108.422 20.4545C108.422 21.3466 108.552 22.1136 108.814 22.7557C109.075 23.392 109.442 23.8835 109.913 24.2301C110.391 24.571 110.95 24.7415 111.592 24.7415C112.047 24.7415 112.453 24.6562 112.811 24.4858C113.175 24.3097 113.479 24.0568 113.723 23.7273C113.967 23.3977 114.135 22.9972 114.226 22.5256H117.175C117.101 23.4517 116.828 24.2727 116.356 24.9886C115.885 25.6989 115.243 26.2557 114.43 26.6591C113.618 27.0568 112.663 27.2557 111.567 27.2557ZM122.073 19.3295V27H118.988V9.54545H122.005V16.1335H122.158C122.465 15.3949 122.94 14.8125 123.582 14.3864C124.23 13.9545 125.053 13.7386 126.053 13.7386C126.962 13.7386 127.755 13.929 128.431 14.3097C129.107 14.6903 129.63 15.2472 129.999 15.9801C130.374 16.7131 130.562 17.608 130.562 18.6648V27H127.477V19.142C127.477 18.2614 127.249 17.5767 126.795 17.0881C126.346 16.5937 125.715 16.3466 124.903 16.3466C124.357 16.3466 123.869 16.4659 123.437 16.7045C123.011 16.9375 122.676 17.2756 122.431 17.7188C122.193 18.1619 122.073 18.6989 122.073 19.3295Z" fill="#FEFEFE" style="fill:#FEFEFE;fill:color(display-p3 0.9958 0.9958 0.9958);fill-opacity:1;"/>
</svg>
